<svg xmlns="http://www.w3.org/2000/svg" width="36.149" height="29.36" viewBox="0 0 36.149 29.36">
  <path id="Icon_awesome-twitter" data-name="Icon awesome-twitter" d="M32.434,11.073c.023.321.023.642.023.963,0,9.794-7.455,21.08-21.08,21.08A20.937,20.937,0,0,1,0,29.79a15.326,15.326,0,0,0,1.789.092,14.838,14.838,0,0,0,9.2-3.165A7.422,7.422,0,0,1,4.06,21.579a9.343,9.343,0,0,0,1.4.115,7.836,7.836,0,0,0,1.95-.252A7.41,7.41,0,0,1,1.468,14.17v-.092a7.461,7.461,0,0,0,3.349.94A7.42,7.42,0,0,1,2.523,5.11,21.059,21.059,0,0,0,17.8,12.863a8.364,8.364,0,0,1-.184-1.7A7.416,7.416,0,0,1,30.438,6.1a14.587,14.587,0,0,0,4.7-1.789A7.389,7.389,0,0,1,31.883,8.39a14.852,14.852,0,0,0,4.266-1.147,15.926,15.926,0,0,1-3.716,3.831Z" transform="translate(0 -3.756)" fill="#60bfbf"/>
</svg>
