<svg xmlns="http://www.w3.org/2000/svg" width="36.149" height="36.149" viewBox="0 0 36.149 36.149">
  <path id="Icon_awesome-linkedin" data-name="Icon awesome-linkedin" d="M33.567,2.5H2.574A2.593,2.593,0,0,0,0,5.106V36.043a2.593,2.593,0,0,0,2.574,2.606H33.567a2.6,2.6,0,0,0,2.582-2.606V5.106A2.6,2.6,0,0,0,33.567,2.5ZM10.925,33.485H5.568V16.234h5.366V33.485ZM8.247,13.877a3.107,3.107,0,1,1,3.107-3.107A3.108,3.108,0,0,1,8.247,13.877ZM31.009,33.485H25.651V25.093c0-2-.04-4.575-2.784-4.575-2.792,0-3.22,2.179-3.22,4.43v8.537H14.29V16.234h5.14V18.59H19.5a5.643,5.643,0,0,1,5.075-2.784c5.422,0,6.431,3.575,6.431,8.222Z" transform="translate(0 -2.5)" fill="#60bfbf"/>
</svg>
