<svg xmlns="http://www.w3.org/2000/svg" width="67.637" height="49.449" viewBox="0 0 67.637 49.449">
  <path id="laptop-code-solid" d="M6.764,39.064A6.925,6.925,0,0,1,13.527,32H54.109a6.925,6.925,0,0,1,6.764,7.064V67.321H54.109V39.064H13.527V67.321H6.764ZM0,72.972a2.076,2.076,0,0,1,2.029-2.119H65.608a2.076,2.076,0,0,1,2.029,2.119,8.3,8.3,0,0,1-8.116,8.477H8.116A8.3,8.3,0,0,1,0,72.972ZM29.7,51.537l-3.276,3.422L29.7,58.38a2.721,2.721,0,0,1,0,3.742,2.46,2.46,0,0,1-3.583,0l-5.073-5.3a2.721,2.721,0,0,1,0-3.742l5.073-5.3a2.451,2.451,0,0,1,3.583,0,2.732,2.732,0,0,1,0,3.742Zm11.836-3.753,5.073,5.3a2.721,2.721,0,0,1,0,3.742l-5.073,5.3a2.451,2.451,0,0,1-3.583,0,2.732,2.732,0,0,1,0-3.742l3.276-3.422-3.276-3.422a2.721,2.721,0,0,1,0-3.742,2.46,2.46,0,0,1,3.583,0Z" transform="translate(0 -32)" fill="#222"/>
</svg>
