<svg xmlns="http://www.w3.org/2000/svg" width="55.748" height="58.225" viewBox="0 0 55.748 58.225">
  <path id="palette-solid" d="M55.748,29.112v.307C55.7,33.57,52.09,36.39,48.115,36.39H37.456a5.348,5.348,0,0,0-5.226,5.459,6.356,6.356,0,0,0,.109,1.126,18.208,18.208,0,0,0,1.176,3.4,12.492,12.492,0,0,1,1.317,4.776c0,3.616-2.352,6.9-5.814,7.051-.381.011-.762.023-1.154.023C12.478,58.225,0,45.192,0,29.112S12.478,0,27.874,0,55.748,13.032,55.748,29.112ZM13.937,32.751a3.56,3.56,0,0,0-3.484-3.639,3.642,3.642,0,0,0,0,7.278A3.56,3.56,0,0,0,13.937,32.751Zm0-10.917a3.642,3.642,0,0,0,0-7.278,3.642,3.642,0,0,0,0,7.278ZM31.358,10.917a3.488,3.488,0,1,0-6.969,0,3.488,3.488,0,1,0,6.969,0ZM41.811,21.834A3.642,3.642,0,1,0,38.327,18.2,3.56,3.56,0,0,0,41.811,21.834Z" fill="#222"/>
</svg>
