<svg xmlns="http://www.w3.org/2000/svg" width="35.969" height="35.967" viewBox="0 0 35.969 35.967">
  <path id="Icon_awesome-facebook-messenger" data-name="Icon awesome-facebook-messenger" d="M18.649.625C8.495.625.625,8.046.625,18.07a17.05,17.05,0,0,0,5.661,12.9c.606.545.481.86.584,4.223a1.445,1.445,0,0,0,2.022,1.274c3.837-1.69,3.886-1.823,4.537-1.646,11.116,3.06,23.165-4.054,23.165-16.754C36.594,8.046,28.8.625,18.649.625ZM29.472,14.05l-5.294,8.381a2.71,2.71,0,0,1-3.909.72L16.057,20a1.088,1.088,0,0,0-1.305,0l-5.683,4.31a.855.855,0,0,1-1.241-1.136l5.294-8.381a2.709,2.709,0,0,1,3.909-.72l4.21,3.152a1.088,1.088,0,0,0,1.305,0l5.686-4.306A.853.853,0,0,1,29.472,14.05Z" transform="translate(-0.625 -0.625)" fill="#60bfbf"/>
</svg>
