<svg xmlns="http://www.w3.org/2000/svg" width="36.164" height="36.156" viewBox="0 0 36.164 36.156">
  <path id="Icon_awesome-instagram" data-name="Icon awesome-instagram" d="M18.08,11.294a9.27,9.27,0,1,0,9.27,9.27A9.255,9.255,0,0,0,18.08,11.294Zm0,15.3a6.027,6.027,0,1,1,6.027-6.027A6.038,6.038,0,0,1,18.08,26.591ZM29.891,10.915a2.162,2.162,0,1,1-2.162-2.162A2.157,2.157,0,0,1,29.891,10.915Zm6.14,2.194c-.137-2.9-.8-5.462-2.921-7.576s-4.679-2.775-7.576-2.921c-2.985-.169-11.932-.169-14.917,0-2.888.137-5.454.8-7.576,2.912S.266,10.205.121,13.1c-.169,2.985-.169,11.932,0,14.917.137,2.9.8,5.462,2.921,7.576s4.679,2.775,7.576,2.921c2.985.169,11.932.169,14.917,0,2.9-.137,5.462-.8,7.576-2.921s2.775-4.679,2.921-7.576C36.2,25.034,36.2,16.095,36.031,13.11ZM32.174,31.222a6.1,6.1,0,0,1-3.437,3.437c-2.38.944-8.027.726-10.658.726s-8.286.21-10.658-.726a6.1,6.1,0,0,1-3.437-3.437c-.944-2.38-.726-8.027-.726-10.658s-.21-8.286.726-10.658A6.1,6.1,0,0,1,7.423,6.47c2.38-.944,8.027-.726,10.658-.726s8.286-.21,10.658.726a6.1,6.1,0,0,1,3.437,3.437c.944,2.38.726,8.027.726,10.658S33.118,28.85,32.174,31.222Z" transform="translate(0.006 -2.486)" fill="#60bfbf"/>
</svg>
