<svg xmlns="http://www.w3.org/2000/svg" width="36.692" height="35.775" viewBox="0 0 36.692 35.775">
  <path id="Icon_awesome-github" data-name="Icon awesome-github" d="M12.272,29.431c0,.148-.17.266-.385.266-.244.022-.414-.1-.414-.266,0-.148.17-.266.385-.266C12.08,29.142,12.272,29.261,12.272,29.431Zm-2.3-.333c-.052.148.1.318.318.362a.347.347,0,0,0,.459-.148c.044-.148-.1-.318-.318-.385A.38.38,0,0,0,9.972,29.1Zm3.27-.126c-.215.052-.362.192-.34.362.022.148.215.244.436.192s.362-.192.34-.34S13.456,28.95,13.242,28.972ZM18.109.625A17.738,17.738,0,0,0,0,18.675,18.546,18.546,0,0,0,12.539,36.37c.947.17,1.28-.414,1.28-.9,0-.459-.022-2.989-.022-4.542,0,0-5.178,1.11-6.266-2.2,0,0-.843-2.153-2.057-2.707,0,0-1.694-1.161.118-1.139A3.9,3.9,0,0,1,8.448,26.79a3.91,3.91,0,0,0,5.393,1.546,4.111,4.111,0,0,1,1.184-2.493c-4.135-.459-8.307-1.058-8.307-8.174a5.606,5.606,0,0,1,1.746-4.357,6.989,6.989,0,0,1,.192-5.023c1.546-.481,5.1,2,5.1,2a17.476,17.476,0,0,1,9.291,0s3.558-2.486,5.1-2a6.986,6.986,0,0,1,.192,5.023,5.75,5.75,0,0,1,1.909,4.357c0,7.139-4.357,7.708-8.492,8.174a4.375,4.375,0,0,1,1.258,3.432c0,2.493-.022,5.578-.022,6.184,0,.481.34,1.065,1.28.9a18.375,18.375,0,0,0,12.413-17.68C36.692,8.415,28.369.625,18.109.625ZM7.19,26.139c-.1.074-.074.244.052.385.118.118.289.17.385.074.1-.074.074-.244-.052-.385C7.457,26.095,7.287,26.043,7.19,26.139Zm-.8-.6c-.052.1.022.215.17.289a.22.22,0,0,0,.318-.052c.052-.1-.022-.215-.17-.289C6.562,25.444,6.443,25.466,6.391,25.54Zm2.4,2.634c-.118.1-.074.318.1.459.17.17.385.192.481.074.1-.1.052-.318-.1-.459C9.106,28.077,8.884,28.055,8.788,28.173Zm-.843-1.087c-.118.074-.118.266,0,.436s.318.244.414.17a.337.337,0,0,0,0-.459C8.256,27.064,8.063,26.99,7.945,27.086Z" transform="translate(0 -0.625)" fill="#60bfbf"/>
</svg>
