<svg xmlns="http://www.w3.org/2000/svg" width="40.469" height="40.469" viewBox="0 0 40.469 40.469">
  <path id="Icon_awesome-dribbble" data-name="Icon awesome-dribbble" d="M20.859.625A20.234,20.234,0,1,0,41.094,20.859,20.257,20.257,0,0,0,20.859.625ZM34.238,9.956a17.2,17.2,0,0,1,3.9,10.766,40.39,40.39,0,0,0-12.035-.556c-.469-1.146-.912-2.153-1.519-3.4,6.39-2.609,9.286-6.322,9.651-6.815Zm-1.921-2C32.005,8.4,29.4,11.9,23.258,14.2A92.254,92.254,0,0,0,16.809,4.083,17.239,17.239,0,0,1,32.316,7.957Zm-18.8-2.713a110.278,110.278,0,0,1,6.408,10A64.466,64.466,0,0,1,3.941,17.346,17.346,17.346,0,0,1,13.511,5.245ZM3.576,20.886c0-.177,0-.353.009-.528A63.754,63.754,0,0,0,21.348,17.9c.495.968.967,1.951,1.4,2.933A26.771,26.771,0,0,0,8.019,32.442,17.214,17.214,0,0,1,3.576,20.886ZM10.251,34.52c1.805-3.691,6.7-8.455,13.673-10.832A71.842,71.842,0,0,1,27.61,36.8a17.248,17.248,0,0,1-17.36-2.275Zm20.265.693A74.6,74.6,0,0,0,27.158,22.89a25.368,25.368,0,0,1,10.766.739A17.313,17.313,0,0,1,30.516,35.213Z" transform="translate(-0.625 -0.625)" fill="#f2f2f2"/>
</svg>
