<svg xmlns="http://www.w3.org/2000/svg" width="206.148" height="30.504" viewBox="0 0 206.148 30.504">
  <path id="logo" d="M21.115,0h6.56L16.892-27.347H11.111L.082,0h6.56L8.733-5.166H19.065ZM10.578-10l3.4-9.184L17.343-10Zm40.057.861a9.825,9.825,0,0,0-2.747-6.806,11.268,11.268,0,0,0-8-2.952A11.268,11.268,0,0,0,31.9-15.949a9.825,9.825,0,0,0-2.747,6.806A9.825,9.825,0,0,0,31.9-2.337,11.268,11.268,0,0,0,39.893.615a11.268,11.268,0,0,0,8-2.952A9.825,9.825,0,0,0,50.635-9.143ZM39.893-13.9a4.511,4.511,0,0,1,3.321,1.312,4.628,4.628,0,0,1,1.353,3.444A4.628,4.628,0,0,1,43.214-5.7a4.482,4.482,0,0,1-3.28,1.312A4.547,4.547,0,0,1,36.572-5.7a4.64,4.64,0,0,1-1.353-3.444,4.628,4.628,0,0,1,1.353-3.444A4.511,4.511,0,0,1,39.893-13.9Zm14.842-4.387V0h5.9V-18.286Zm-.492-7.79a3.413,3.413,0,0,0,3.444,3.444,3.413,3.413,0,0,0,3.444-3.444,3.413,3.413,0,0,0-3.444-3.444A3.413,3.413,0,0,0,54.243-26.076ZM91.43-22.017v-5.33h-18.2v5.33h5.945V0h6.314V-22.017Zm14.227,5.781a6.859,6.859,0,0,0-5.74-2.665,8.816,8.816,0,0,0-6.355,2.5,10.413,10.413,0,0,0-2.829,7.38A9.676,9.676,0,0,0,93.4-2.173,8.666,8.666,0,0,0,100.245.615a6.093,6.093,0,0,0,5.412-2.829V0h5.9V-18.286h-5.9Zm-4.264,2.419a4.941,4.941,0,0,1,3.28,1.271,4.637,4.637,0,0,1,1.353,3.362,4.645,4.645,0,0,1-1.435,3.444,4.373,4.373,0,0,1-3.075,1.271A4.849,4.849,0,0,1,98.031-5.9a4.716,4.716,0,0,1-1.23-3.28,4.569,4.569,0,0,1,1.353-3.321A4.654,4.654,0,0,1,101.393-13.817ZM116.153,0h5.9V-9.389a4.678,4.678,0,0,1,1.148-3.485,3.209,3.209,0,0,1,2.46-.984,3.1,3.1,0,0,1,2.255.82c.943.943.984,2.46.984,3.649V0h5.9V-11.562a7.162,7.162,0,0,0-1.845-5.371,7.205,7.205,0,0,0-5.248-1.845,6.677,6.677,0,0,0-5.658,2.665v-2.173h-5.9Zm37.269-16.236a6.859,6.859,0,0,0-5.74-2.665,8.816,8.816,0,0,0-6.355,2.5A10.413,10.413,0,0,0,138.5-9.02a9.676,9.676,0,0,0,2.665,6.847A8.666,8.666,0,0,0,148.01.615a6.093,6.093,0,0,0,5.412-2.829V0h5.9V-18.286h-5.9Zm-4.264,2.419a4.941,4.941,0,0,1,3.28,1.271,4.637,4.637,0,0,1,1.353,3.362,4.645,4.645,0,0,1-1.435,3.444,4.373,4.373,0,0,1-3.075,1.271A4.849,4.849,0,0,1,145.8-5.9a4.716,4.716,0,0,1-1.23-3.28,4.569,4.569,0,0,1,1.353-3.321A4.654,4.654,0,0,1,149.158-13.817Zm14.924-16.072V0h5.9V-7.872L177.038,0h7.954l-9.307-10,8.692-8.282h-7.749l-6.642,6.724V-29.889Zm36.244,13.653a6.859,6.859,0,0,0-5.74-2.665,8.816,8.816,0,0,0-6.355,2.5A10.413,10.413,0,0,0,185.4-9.02a9.676,9.676,0,0,0,2.665,6.847A8.666,8.666,0,0,0,194.914.615a6.093,6.093,0,0,0,5.412-2.829V0h5.9V-18.286h-5.9Zm-4.264,2.419a4.941,4.941,0,0,1,3.28,1.271A4.637,4.637,0,0,1,200.7-9.184,4.645,4.645,0,0,1,199.26-5.74a4.373,4.373,0,0,1-3.075,1.271A4.849,4.849,0,0,1,192.7-5.9a4.716,4.716,0,0,1-1.23-3.28,4.569,4.569,0,0,1,1.353-3.321A4.654,4.654,0,0,1,196.062-13.817Z" transform="translate(-0.082 29.889)" fill="#222"/>
</svg>
